<svg version="1.1" xmlns="http://www.w3.org/2000/svg" xmlns:xlink="http://www.w3.org/1999/xlink" width="44.25871" height="55.37856" viewBox="0,0,44.25871,55.37856"><g transform="translate(-217.87064,-152.31072)"><g data-paper-data="{&quot;isPaintingLayer&quot;:true}" fill-rule="nonzero" stroke-linecap="butt" stroke-linejoin="miter" stroke-miterlimit="10" stroke-dasharray="" stroke-dashoffset="0" style="mix-blend-mode: normal"><g><g><path d="M220.71132,172.12174c5.98614,-14.65614 19.47471,-23.01007 30.12755,-18.65903c10.65284,4.35104 14.43595,19.75941 8.4498,34.41554c-5.98614,14.65614 -19.47471,23.01007 -30.12755,18.65903c-10.65284,-4.35104 -14.43595,-19.75941 -8.4498,-34.41554zM237.24367,187.36072c2.66321,1.08776 6.03535,-1.00073 7.53189,-4.66476c1.49653,-3.66404 0.55076,-7.51612 -2.11245,-8.60388c-2.66321,-1.08776 -6.03535,1.00072 -7.53189,4.66476c-1.49653,3.66404 -0.55076,7.51613 2.11245,8.60389z" fill="#000000" stroke="none" stroke-width="0"/><path d="M221.832,172.57947c5.63835,-13.80462 18.34323,-21.67319 28.37714,-17.57494c10.03391,4.09824 13.59722,18.61138 7.95887,32.416c-5.63835,13.80462 -18.34323,21.67319 -28.37714,17.57494c-10.03391,-4.09824 -13.59722,-18.61138 -7.95887,-32.416zM237.40381,186.93306c2.50848,1.02456 5.6847,-0.94258 7.09428,-4.39374c1.40959,-3.45115 0.51876,-7.07944 -1.98972,-8.104c-2.50848,-1.02456 -5.6847,0.94258 -7.09428,4.39374c-1.40959,3.45115 -0.51876,7.07944 1.98972,8.104z" fill="#dddddd" stroke="none" stroke-width="0"/><path d="M235.99109,178.77881c1.39504,-3.19761 4.2493,-5.03792 6.37518,-4.11045c2.12588,0.92747 2.71836,4.2715 1.32332,7.46911c-1.39504,3.19761 -4.24931,5.03793 -6.37519,4.11046c-2.12588,-0.92747 -2.71835,-4.2715 -1.32331,-7.46911z" fill="none" stroke="#000000" stroke-width="1.5"/></g><path d="M239.95037,173.19204c0,0 3.56378,-3.15242 2.18897,-5.63582c-2.08077,-3.75863 -9.02978,-8.2001 -7.57444,-7.35892c2.43597,1.40796 12.6374,5.13162 12.89368,3.63757c0.24009,-1.39971 -9.39185,-7.98165 -9.39185,-7.98165l9.57057,-0.66488c0,0 2.11105,-0.00197 3.13379,0.37008c1.1276,0.41019 3.34799,1.98781 3.34799,1.98781c0,0 -3.51919,0.53655 -4.31569,2.72613c-0.34797,0.95658 5.50202,6.07992 3.8456,5.11151c-4.56223,-2.66724 1.04408,3.08595 0.60467,5.95476c-16.10386,-8.62535 -8.78716,4.28699 -8.78716,4.28699c0,0 -1.5701,-1.61755 -2.477,-2.01765c-0.93117,-0.41081 -3.03913,-0.41592 -3.03913,-0.41592z" fill="#ececec" stroke="none" stroke-width="0"/><path d="M239.32955,187.97699c0,0 -3.43851,2.46747 -2.4464,4.78928c1.50155,3.51406 7.24928,8.07237 6.03748,7.19648c-2.02832,-1.46607 -10.71899,-5.68315 -11.0808,-4.38424c-0.33897,1.2169 7.58942,7.9118 7.58942,7.9118l-8.52906,-0.27667c0,0 -1.86823,-0.18905 -2.73963,-0.61071c-0.96074,-0.46489 -2.78297,-2.06161 -2.78297,-2.06161c0,0 3.16261,-0.15672 4.06534,-2.02228c0.39438,-0.81502 -4.31921,-5.87738 -2.94097,-4.87073c3.79603,2.77258 -0.64498,-2.82512 0.00314,-5.324c13.47066,9.08805 8.1632,-2.99934 8.1632,-2.99934c0,0 1.24319,1.57327 2.00953,2.00929c0.78686,0.44768 2.65172,0.64274 2.65172,0.64274z" data-paper-data="{&quot;index&quot;:null}" fill="#ececec" stroke="none" stroke-width="0"/></g></g></g></svg>