<svg version="1.1" xmlns="http://www.w3.org/2000/svg" xmlns:xlink="http://www.w3.org/1999/xlink" width="86.42293" height="56.74521" viewBox="0,0,86.42293,56.74521"><g transform="translate(-196.78854,-151.6274)"><g data-paper-data="{&quot;isPaintingLayer&quot;:true}" fill-rule="nonzero" stroke="none" stroke-width="0" stroke-linecap="butt" stroke-linejoin="miter" stroke-miterlimit="10" stroke-dasharray="" stroke-dashoffset="0" style="mix-blend-mode: normal"><g><path d="M203.35214,207.63591c-2.06241,-0.04193 -1.5637,-1.9543 -1.5637,-1.9543l-4.9999,-42.64265c0,0 22.26086,0 36.61799,0c1.88654,0 3.63663,-5.88434 5.1818,-5.88434c12.1552,0 34.89072,0 34.89072,0l8.35058,47.50971c0,0 -0.49023,2.11798 -1.78698,2.97156c-25.14057,0.35565 -43.98088,0.66519 -76.69051,0z" fill="#404040"/><path d="M203.35214,202.0635v-47.32702h72.19962v47.32702z" fill="#ffffff"/><path d="M204.73396,207.93619c-2.06241,-0.04678 -1.5637,-2.17989 -1.5637,-2.17989l1.5637,-47.5653c0,0 22.26086,0 36.618,0c1.88654,0 3.63663,-6.5636 5.1818,-6.5636c12.15518,0 34.89072,0 34.89072,0l1.78698,52.99419c0,0 -0.49023,2.36249 -1.78698,3.31461c-25.14057,0.39671 -43.98088,0.74198 -76.69051,0z" fill="#6a6a6a"/></g></g></g></svg>