<svg version="1.1" xmlns="http://www.w3.org/2000/svg" xmlns:xlink="http://www.w3.org/1999/xlink" width="86" height="94.31667" viewBox="0,0,86,94.31667"><g transform="translate(-197,-148.83333)"><g data-paper-data="{&quot;isPaintingLayer&quot;:true}" fill-rule="nonzero" stroke-width="0" stroke-linecap="butt" stroke-linejoin="miter" stroke-miterlimit="10" stroke-dasharray="" stroke-dashoffset="0" style="mix-blend-mode: normal"><g><path d="M225.125,223.625l5,-39.75h19.75l4.75,39.75z" fill="#383838" stroke="none"/><path d="M197,209.16667v-58.33334h86v58.33334z" fill="#6a6a6a" stroke="#000000"/><path d="M197,151.16667l9,-2.33333h68l9,2.33333z" fill="#525252" stroke="#000000"/><path d="M203.625,200.79167v-44.58334h72.75v44.58334z" fill="#979797" stroke="#000000"/><path d="M222.125,223.875v-8.25h35.75v8.25z" fill="#383838" stroke="none"/><path d="M231.38449,200.625l-15.75949,-44h15.98259l16.76741,44z" fill="#acacac" stroke="none"/><path d="M254.22279,200.625l-17.34779,-44h7.19827l17.80173,44z" fill="#acacac" stroke="none"/><path d="M198,238l5.47619,-17.25h73.38095l5.47619,17.25z" fill="#515151" stroke="none"/><path d="M198.02501,243.15v-5.25h84.25v5.25z" fill="#434343" stroke="none"/><path d="M206.5,236.42045l4.33983,-13.67045h58.15368l4.33983,13.67045z" fill="#2b2b2b" stroke="none"/></g></g></g></svg>